<svg width="17" height="19" viewBox="0 0 17 19" fill="none" xmlns="http://www.w3.org/2000/svg">
    <path fill-rule="evenodd" clip-rule="evenodd" d="M8.26928 1.75C6.75472 1.75 5.52692 2.9778 5.52692 4.49237C5.52692 6.00693 6.75472 7.23473 8.26928 7.23473C9.78385 7.23473 11.0116 6.00693 11.0116 4.49237C11.0116 2.9778 9.78385 1.75 8.26928 1.75ZM4.02692 4.49237C4.02692 2.14937 5.92629 0.25 8.26928 0.25C10.6123 0.25 12.5116 2.14937 12.5116 4.49237C12.5116 6.83536 10.6123 8.73473 8.26928 8.73473C5.92629 8.73473 4.02692 6.83536 4.02692 4.49237Z" fill="black" />
    <path fill-rule="evenodd" clip-rule="evenodd" d="M8.26926 11.063C4.71103 11.063 1.64648 14.4423 1.64648 18.8499H0.146484C0.146484 13.8278 3.68374 9.56299 8.26926 9.56299C12.8548 9.56299 16.392 13.8278 16.392 18.8499H14.892C14.892 14.4423 11.8275 11.063 8.26926 11.063Z" fill="black" />
</svg>
    