<svg width="20" height="17" viewBox="0 0 20 17" fill="none" xmlns="http://www.w3.org/2000/svg">
    <path fill-rule="evenodd" clip-rule="evenodd" d="M17.2645 2.62278C16.9042 2.26847 16.475 1.98607 16.0009 1.79293L16.5668 0.40377C17.2211 0.670289 17.8155 1.0609 18.3162 1.5533C18.8171 2.04555 19.2147 2.63023 19.4858 3.27345L18.1035 3.85602C17.91 3.39673 17.6249 2.97701 17.2645 2.62278ZM19.4858 7.33199C19.7569 6.68865 19.8965 5.9991 19.8965 5.30272C19.8965 4.60634 19.7569 3.91679 19.4858 3.27345L18.1035 3.85602C18.2972 4.31545 18.3965 4.80697 18.3965 5.30272C18.3965 5.79848 18.2972 6.28999 18.1035 6.74942L19.4858 7.33199ZM18.3164 9.052C18.8173 8.55973 19.2147 7.97527 19.4858 7.33199L18.1035 6.74942C17.9099 7.20885 17.6254 7.62797 17.265 7.98214L17.2538 7.99316L10.5386 14.8748L3.52775 7.98235C2.80036 7.26724 2.39648 6.30283 2.39648 5.30272C2.39648 4.30262 2.80036 3.3382 3.52775 2.62309C4.25601 1.90713 5.24909 1.50044 6.28983 1.50044C7.33058 1.50044 8.32366 1.90713 9.05192 2.62309L10.3963 3.94474L11.7405 2.62323C12.1008 2.26882 12.5303 1.98607 13.0045 1.79293C13.4787 1.59975 13.9879 1.5 14.5027 1.5C15.0175 1.5 15.5267 1.59975 16.0009 1.79293L16.5668 0.40377C15.9124 0.137203 15.211 0 14.5027 0C13.7944 0 13.093 0.137203 12.4386 0.40377C11.7842 0.670314 11.1896 1.06111 10.6889 1.55358L10.3963 1.84125L10.1035 1.55344C9.09206 0.559068 7.72024 0.000436147 6.28983 0.000436147C4.85943 0.000436147 3.48761 0.559068 2.47616 1.55344C1.46471 2.54781 0.896484 3.89647 0.896484 5.30272C0.896484 6.70898 1.46471 8.05763 2.47616 9.052L10.5607 17L18.3164 9.052Z" fill="black" />
</svg>
    