<svg width="189" height="25" viewBox="0 0 189 25" fill="none" xmlns="http://www.w3.org/2000/svg">
    <path d="M8.45 2.76C12.03 2.76 14.69 3.66 16.43 5.46C18.17 7.24 19.04 9.8 19.04 13.14C19.04 15.32 18.61 17.23 17.75 18.87C16.91 20.49 15.68 21.75 14.06 22.65C12.44 23.55 10.48 24 8.18 24C7.74 24 7.09 23.99 6.23 23.97C5.37 23.93 4.62 23.91 3.98 23.91C3.28 23.91 2.59 23.92 1.91 23.94C1.23 23.94 0.68 23.96 0.26 24V23.4C0.94 23.36 1.45 23.28 1.79 23.16C2.15 23.04 2.39 22.8 2.51 22.44C2.63 22.08 2.69 21.54 2.69 20.82V5.94C2.69 5.2 2.63 4.66 2.51 4.32C2.39 3.96 2.15 3.72 1.79 3.6C1.45 3.46 0.94 3.38 0.26 3.36V2.76C0.68 2.78 1.23 2.81 1.91 2.85C2.59 2.87 3.26 2.87 3.92 2.85C4.62 2.83 5.41 2.81 6.29 2.79C7.17 2.77 7.89 2.76 8.45 2.76ZM7.7 3.3C6.78 3.3 6.18 3.47 5.9 3.81C5.62 4.15 5.48 4.84 5.48 5.88V20.88C5.48 21.92 5.62 22.61 5.9 22.95C6.2 23.29 6.81 23.46 7.73 23.46C9.91 23.46 11.6 23.07 12.8 22.29C14 21.49 14.84 20.33 15.32 18.81C15.8 17.29 16.04 15.44 16.04 13.26C16.04 9.9 15.42 7.4 14.18 5.76C12.96 4.12 10.8 3.3 7.7 3.3ZM28.8997 8.13C30.1797 8.13 31.3297 8.41 32.3497 8.97C33.3697 9.53 34.1797 10.41 34.7797 11.61C35.3997 12.81 35.7097 14.37 35.7097 16.29C35.7097 18.21 35.3997 19.77 34.7797 20.97C34.1797 22.15 33.3697 23.02 32.3497 23.58C31.3297 24.14 30.1797 24.42 28.8997 24.42C27.6397 24.42 26.4897 24.14 25.4497 23.58C24.4297 23.02 23.6097 22.15 22.9897 20.97C22.3897 19.77 22.0897 18.21 22.0897 16.29C22.0897 14.37 22.3897 12.81 22.9897 11.61C23.6097 10.41 24.4297 9.53 25.4497 8.97C26.4897 8.41 27.6397 8.13 28.8997 8.13ZM28.8997 8.73C27.7597 8.73 26.8197 9.32 26.0797 10.5C25.3597 11.68 24.9997 13.61 24.9997 16.29C24.9997 18.97 25.3597 20.9 26.0797 22.08C26.8197 23.24 27.7597 23.82 28.8997 23.82C30.0397 23.82 30.9697 23.24 31.6897 22.08C32.4297 20.9 32.7997 18.97 32.7997 16.29C32.7997 13.61 32.4297 11.68 31.6897 10.5C30.9697 9.32 30.0397 8.73 28.8997 8.73ZM51.6052 8.22V20.76C51.6052 21.66 51.7652 22.33 52.0852 22.77C52.4252 23.19 53.0252 23.4 53.8852 23.4V24.03C53.2652 23.97 52.6452 23.94 52.0252 23.94C51.4452 23.94 50.8852 23.97 50.3452 24.03C49.8252 24.09 49.3452 24.2 48.9052 24.36V20.82C48.4052 22.12 47.6952 23.05 46.7752 23.61C45.8752 24.15 44.9452 24.42 43.9852 24.42C43.2852 24.42 42.6752 24.32 42.1552 24.12C41.6352 23.92 41.2052 23.64 40.8652 23.28C40.4852 22.88 40.2252 22.36 40.0852 21.72C39.9452 21.08 39.8752 20.29 39.8752 19.35V11.82C39.8752 10.92 39.7152 10.26 39.3952 9.84C39.0752 9.4 38.4752 9.18 37.5952 9.18V8.55C38.2352 8.61 38.8552 8.64 39.4552 8.64C40.0352 8.64 40.5852 8.61 41.1052 8.55C41.6452 8.47 42.1352 8.36 42.5752 8.22V20.01C42.5752 20.63 42.6152 21.2 42.6952 21.72C42.7752 22.24 42.9752 22.66 43.2952 22.98C43.6152 23.3 44.1352 23.46 44.8552 23.46C46.0352 23.46 47.0052 22.94 47.7652 21.9C48.5252 20.84 48.9052 19.55 48.9052 18.03V11.82C48.9052 10.92 48.7452 10.26 48.4252 9.84C48.1052 9.4 47.5052 9.18 46.6252 9.18V8.55C47.2652 8.61 47.8852 8.64 48.4852 8.64C49.0652 8.64 49.6152 8.61 50.1352 8.55C50.6752 8.47 51.1652 8.36 51.6052 8.22ZM62.9169 8.13C63.5569 8.13 64.1769 8.21 64.7769 8.37C65.3769 8.53 65.9169 8.77 66.3969 9.09C66.8569 9.39 67.2069 9.74 67.4469 10.14C67.6869 10.52 67.8069 10.94 67.8069 11.4C67.8069 11.94 67.6569 12.36 67.3569 12.66C67.0569 12.94 66.6769 13.08 66.2169 13.08C65.7769 13.08 65.3869 12.95 65.0469 12.69C64.7269 12.43 64.5669 12.06 64.5669 11.58C64.5669 11.12 64.6869 10.75 64.9269 10.47C65.1869 10.19 65.4869 10.01 65.8269 9.93C65.6269 9.57 65.2669 9.27 64.7469 9.03C64.2469 8.79 63.7069 8.67 63.1269 8.67C62.6269 8.67 62.1269 8.79 61.6269 9.03C61.1269 9.27 60.6669 9.67 60.2469 10.23C59.8269 10.77 59.4869 11.52 59.2269 12.48C58.9669 13.42 58.8369 14.6 58.8369 16.02C58.8369 17.78 59.0369 19.18 59.4369 20.22C59.8369 21.26 60.3569 22.01 60.9969 22.47C61.6569 22.91 62.3769 23.13 63.1569 23.13C63.9369 23.13 64.7269 22.9 65.5269 22.44C66.3269 21.98 66.9869 21.18 67.5069 20.04L68.0769 20.25C67.8769 20.89 67.5469 21.54 67.0869 22.2C66.6269 22.84 66.0269 23.37 65.2869 23.79C64.5469 24.21 63.6369 24.42 62.5569 24.42C61.3169 24.42 60.1969 24.1 59.1969 23.46C58.1969 22.82 57.3969 21.91 56.7969 20.73C56.2169 19.53 55.9269 18.11 55.9269 16.47C55.9269 14.83 56.2169 13.39 56.7969 12.15C57.3969 10.89 58.2269 9.91 59.2869 9.21C60.3469 8.49 61.5569 8.13 62.9169 8.13ZM77.2967 8.13C79.0567 8.13 80.4267 8.67 81.4067 9.75C82.4067 10.81 82.9067 12.47 82.9067 14.73H72.3167L72.2867 14.16H80.0267C80.0667 13.18 79.9867 12.28 79.7867 11.46C79.5867 10.62 79.2667 9.95 78.8267 9.45C78.4067 8.95 77.8567 8.7 77.1767 8.7C76.2567 8.7 75.4367 9.16 74.7167 10.08C74.0167 11 73.5967 12.46 73.4567 14.46L73.5467 14.58C73.5067 14.88 73.4767 15.21 73.4567 15.57C73.4367 15.93 73.4267 16.29 73.4267 16.65C73.4267 18.01 73.6467 19.18 74.0867 20.16C74.5267 21.14 75.0967 21.89 75.7967 22.41C76.5167 22.91 77.2567 23.16 78.0167 23.16C78.9167 23.16 79.7467 22.94 80.5067 22.5C81.2667 22.06 81.9067 21.28 82.4267 20.16L83.0267 20.4C82.8067 21.06 82.4467 21.7 81.9467 22.32C81.4467 22.94 80.8167 23.45 80.0567 23.85C79.2967 24.23 78.4167 24.42 77.4167 24.42C75.9767 24.42 74.7367 24.09 73.6967 23.43C72.6767 22.77 71.8867 21.86 71.3267 20.7C70.7867 19.52 70.5167 18.17 70.5167 16.65C70.5167 14.89 70.7967 13.38 71.3567 12.12C71.9167 10.84 72.7067 9.86 73.7267 9.18C74.7467 8.48 75.9367 8.13 77.2967 8.13ZM100.993 2.94C101.753 2.94 102.383 3.03 102.883 3.21C103.383 3.37 103.793 3.58 104.113 3.84C104.513 4.16 104.793 4.51 104.953 4.89C105.133 5.25 105.223 5.59 105.223 5.91C105.223 6.41 105.043 6.8 104.683 7.08C104.343 7.36 103.963 7.5 103.543 7.5C103.143 7.5 102.783 7.37 102.463 7.11C102.143 6.85 101.983 6.48 101.983 6C101.983 5.56 102.133 5.19 102.433 4.89C102.733 4.57 103.113 4.39 103.573 4.35C103.493 4.09 103.243 3.87 102.823 3.69C102.423 3.49 101.913 3.39 101.293 3.39C100.273 3.39 99.4332 3.7 98.7732 4.32C98.1332 4.92 97.8132 5.8 97.8132 6.96C97.8132 7.52 97.9132 8.09 98.1132 8.67C98.3332 9.25 98.7432 9.82 99.3432 10.38C99.6832 10.32 100.033 10.28 100.393 10.26C100.753 10.22 101.023 10.2 101.203 10.2C102.003 10.2 102.403 10.43 102.403 10.89C102.403 11.07 102.323 11.21 102.163 11.31C102.023 11.41 101.823 11.46 101.563 11.46C101.183 11.46 100.783 11.38 100.363 11.22C99.9432 11.04 99.6132 10.9 99.3732 10.8C98.2132 11.14 97.2732 11.7 96.5532 12.48C95.8332 13.24 95.4732 14.32 95.4732 15.72C95.4732 17.1 95.8332 18.27 96.5532 19.23C97.2732 20.19 98.2332 20.93 99.4332 21.45C100.653 21.95 102.013 22.2 103.513 22.2C104.573 22.2 105.573 22.08 106.513 21.84C107.473 21.58 108.313 21.21 109.033 20.73C109.773 20.25 110.353 19.68 110.773 19.02C111.193 18.34 111.403 17.57 111.403 16.71C111.403 16.33 111.323 15.85 111.163 15.27C111.003 14.67 110.673 14.09 110.173 13.53C109.673 12.95 108.903 12.5 107.863 12.18L108.223 11.88C109.683 12.32 110.723 13.03 111.343 14.01C111.963 14.97 112.273 16.05 112.273 17.25C112.273 18.45 111.913 19.6 111.193 20.7C110.473 21.8 109.433 22.7 108.073 23.4C106.713 24.08 105.063 24.42 103.123 24.42C101.403 24.42 99.8032 24.12 98.3232 23.52C96.8432 22.92 95.6532 22.06 94.7532 20.94C93.8532 19.82 93.4032 18.49 93.4032 16.95C93.4032 15.87 93.6132 14.95 94.0332 14.19C94.4532 13.41 94.9732 12.77 95.5932 12.27C96.2132 11.77 96.8332 11.39 97.4532 11.13C98.0732 10.85 98.5732 10.66 98.9532 10.56C97.9532 10.12 97.1932 9.55 96.6732 8.85C96.1732 8.15 95.9232 7.43 95.9232 6.69C95.9232 6.21 96.0332 5.75 96.2532 5.31C96.4732 4.85 96.7932 4.44 97.2132 4.08C97.6332 3.72 98.1532 3.44 98.7732 3.24C99.4132 3.04 100.153 2.94 100.993 2.94ZM111.913 2.34C113.153 2.34 114.193 2.7 115.033 3.42C115.873 4.12 116.293 5.11 116.293 6.39C116.293 7.41 116.013 8.27 115.453 8.97C114.913 9.65 114.243 10.19 113.443 10.59C112.983 10.81 112.373 11.05 111.613 11.31C110.873 11.57 110.073 11.83 109.213 12.09C108.373 12.35 107.563 12.61 106.783 12.87C106.023 13.11 105.403 13.32 104.923 13.5C104.183 13.78 103.553 14.13 103.033 14.55C102.533 14.95 102.283 15.47 102.283 16.11C102.283 16.63 102.433 17.07 102.733 17.43C103.033 17.79 103.393 18.06 103.813 18.24C104.253 18.42 104.663 18.51 105.043 18.51C105.323 18.51 105.673 18.46 106.093 18.36C106.533 18.24 106.783 18.07 106.843 17.85C106.523 17.79 106.203 17.65 105.883 17.43C105.583 17.19 105.433 16.82 105.433 16.32C105.433 15.84 105.593 15.46 105.913 15.18C106.233 14.9 106.623 14.76 107.083 14.76C107.563 14.76 107.943 14.91 108.223 15.21C108.523 15.51 108.673 15.9 108.673 16.38C108.673 16.94 108.483 17.42 108.103 17.82C107.743 18.2 107.283 18.49 106.723 18.69C106.183 18.87 105.643 18.96 105.103 18.96C104.543 18.96 103.973 18.84 103.393 18.6C102.813 18.36 102.333 17.99 101.953 17.49C101.573 16.97 101.383 16.29 101.383 15.45C101.383 14.41 101.733 13.54 102.433 12.84C103.133 12.12 104.163 11.53 105.523 11.07C106.123 10.87 106.853 10.65 107.713 10.41C108.573 10.17 109.453 9.91 110.353 9.63C111.273 9.35 112.103 9.04 112.843 8.7C113.843 8.24 114.523 7.77 114.883 7.29C115.243 6.81 115.423 6.32 115.423 5.82C115.423 4.96 115.073 4.24 114.373 3.66C113.693 3.08 112.883 2.79 111.943 2.79C111.703 2.79 111.503 2.81 111.343 2.85C111.183 2.89 111.083 2.96 111.043 3.06C111.323 3.2 111.533 3.4 111.673 3.66C111.813 3.92 111.883 4.18 111.883 4.44C111.883 4.86 111.713 5.21 111.373 5.49C111.053 5.77 110.663 5.91 110.203 5.91C109.823 5.91 109.463 5.79 109.123 5.55C108.783 5.29 108.613 4.91 108.613 4.41C108.613 3.89 108.783 3.48 109.123 3.18C109.483 2.88 109.913 2.67 110.413 2.55C110.933 2.41 111.433 2.34 111.913 2.34ZM125.621 2.76C126.041 2.78 126.591 2.8 127.271 2.82C127.951 2.84 128.621 2.85 129.281 2.85C130.221 2.85 131.121 2.84 131.981 2.82C132.841 2.8 133.451 2.79 133.811 2.79C135.911 2.79 137.491 3.23 138.551 4.11C139.611 4.99 140.141 6.12 140.141 7.5C140.141 8.2 139.991 8.89 139.691 9.57C139.411 10.23 138.931 10.84 138.251 11.4C137.591 11.94 136.701 12.38 135.581 12.72V12.78C137.161 12.98 138.391 13.36 139.271 13.92C140.171 14.46 140.801 15.1 141.161 15.84C141.521 16.58 141.701 17.36 141.701 18.18C141.701 19.88 141.061 21.28 139.781 22.38C138.521 23.46 136.761 24 134.501 24C134.061 24 133.401 23.99 132.521 23.97C131.641 23.93 130.581 23.91 129.341 23.91C128.641 23.91 127.951 23.92 127.271 23.94C126.591 23.94 126.041 23.96 125.621 24V23.4C126.301 23.36 126.811 23.28 127.151 23.16C127.511 23.04 127.751 22.8 127.871 22.44C127.991 22.08 128.051 21.54 128.051 20.82V5.94C128.051 5.2 127.991 4.66 127.871 4.32C127.751 3.96 127.511 3.72 127.151 3.6C126.811 3.46 126.301 3.38 125.621 3.36V2.76ZM133.061 3.36C132.141 3.36 131.541 3.53 131.261 3.87C130.981 4.21 130.841 4.9 130.841 5.94V20.82C130.841 21.86 130.981 22.54 131.261 22.86C131.561 23.16 132.171 23.31 133.091 23.31C135.051 23.31 136.471 22.86 137.351 21.96C138.251 21.04 138.701 19.74 138.701 18.06C138.701 16.52 138.281 15.33 137.441 14.49C136.621 13.65 135.261 13.23 133.361 13.23H130.271C130.271 13.23 130.271 13.15 130.271 12.99C130.271 12.81 130.271 12.72 130.271 12.72H132.851C134.031 12.72 134.941 12.5 135.581 12.06C136.221 11.6 136.661 11 136.901 10.26C137.141 9.5 137.261 8.69 137.261 7.83C137.261 6.35 136.931 5.24 136.271 4.5C135.631 3.74 134.561 3.36 133.061 3.36ZM151.213 8.13C152.973 8.13 154.343 8.67 155.323 9.75C156.323 10.81 156.823 12.47 156.823 14.73H146.233L146.203 14.16H153.943C153.983 13.18 153.903 12.28 153.703 11.46C153.503 10.62 153.183 9.95 152.743 9.45C152.323 8.95 151.773 8.7 151.093 8.7C150.173 8.7 149.353 9.16 148.633 10.08C147.933 11 147.513 12.46 147.373 14.46L147.463 14.58C147.423 14.88 147.393 15.21 147.373 15.57C147.353 15.93 147.343 16.29 147.343 16.65C147.343 18.01 147.563 19.18 148.003 20.16C148.443 21.14 149.013 21.89 149.713 22.41C150.433 22.91 151.173 23.16 151.933 23.16C152.833 23.16 153.663 22.94 154.423 22.5C155.183 22.06 155.823 21.28 156.343 20.16L156.943 20.4C156.723 21.06 156.363 21.7 155.863 22.32C155.363 22.94 154.733 23.45 153.973 23.85C153.213 24.23 152.333 24.42 151.333 24.42C149.893 24.42 148.653 24.09 147.613 23.43C146.593 22.77 145.803 21.86 145.243 20.7C144.703 19.52 144.433 18.17 144.433 16.65C144.433 14.89 144.713 13.38 145.273 12.12C145.833 10.84 146.623 9.86 147.643 9.18C148.663 8.48 149.853 8.13 151.213 8.13ZM163.869 0.479999V21.21C163.869 22.05 164.039 22.62 164.379 22.92C164.739 23.22 165.329 23.37 166.149 23.37V24C165.809 23.98 165.289 23.96 164.589 23.94C163.909 23.9 163.219 23.88 162.519 23.88C161.839 23.88 161.149 23.9 160.449 23.94C159.749 23.96 159.229 23.98 158.889 24V23.37C159.709 23.37 160.289 23.22 160.629 22.92C160.989 22.62 161.169 22.05 161.169 21.21V4.08C161.169 3.18 161.009 2.52 160.689 2.1C160.369 1.66 159.769 1.44 158.889 1.44V0.809998C159.529 0.869999 160.149 0.899999 160.749 0.899999C161.329 0.899999 161.879 0.869999 162.399 0.809998C162.939 0.729999 163.429 0.619999 163.869 0.479999ZM172.453 0.479999V21.21C172.453 22.05 172.623 22.62 172.963 22.92C173.323 23.22 173.913 23.37 174.732 23.37V24C174.393 23.98 173.873 23.96 173.173 23.94C172.493 23.9 171.803 23.88 171.103 23.88C170.423 23.88 169.733 23.9 169.033 23.94C168.333 23.96 167.813 23.98 167.473 24V23.37C168.293 23.37 168.873 23.22 169.213 22.92C169.573 22.62 169.753 22.05 169.753 21.21V4.08C169.753 3.18 169.593 2.52 169.273 2.1C168.953 1.66 168.353 1.44 167.473 1.44V0.809998C168.113 0.869999 168.733 0.899999 169.333 0.899999C169.913 0.899999 170.463 0.869999 170.983 0.809998C171.523 0.729999 172.013 0.619999 172.453 0.479999ZM183.264 8.13C185.024 8.13 186.394 8.67 187.374 9.75C188.374 10.81 188.874 12.47 188.874 14.73H178.284L178.254 14.16H185.994C186.034 13.18 185.954 12.28 185.754 11.46C185.554 10.62 185.234 9.95 184.794 9.45C184.374 8.95 183.824 8.7 183.144 8.7C182.224 8.7 181.404 9.16 180.684 10.08C179.984 11 179.564 12.46 179.424 14.46L179.514 14.58C179.474 14.88 179.444 15.21 179.424 15.57C179.404 15.93 179.394 16.29 179.394 16.65C179.394 18.01 179.614 19.18 180.054 20.16C180.494 21.14 181.064 21.89 181.764 22.41C182.484 22.91 183.224 23.16 183.984 23.16C184.884 23.16 185.714 22.94 186.474 22.5C187.234 22.06 187.874 21.28 188.394 20.16L188.994 20.4C188.774 21.06 188.414 21.7 187.914 22.32C187.414 22.94 186.784 23.45 186.024 23.85C185.264 24.23 184.384 24.42 183.384 24.42C181.944 24.42 180.704 24.09 179.664 23.43C178.644 22.77 177.854 21.86 177.294 20.7C176.754 19.52 176.484 18.17 176.484 16.65C176.484 14.89 176.764 13.38 177.324 12.12C177.884 10.84 178.674 9.86 179.694 9.18C180.714 8.48 181.904 8.13 183.264 8.13Z" fill="black" />
</svg>
    