<svg width="18" height="18" viewBox="0 0 18 18" fill="none" xmlns="http://www.w3.org/2000/svg">
    <path fill-rule="evenodd" clip-rule="evenodd" d="M7.87431 1.75C4.49195 1.75 1.75 4.49195 1.75 7.87431C1.75 11.2567 4.49195 13.9986 7.87431 13.9986C11.2567 13.9986 13.9986 11.2567 13.9986 7.87431C13.9986 4.49195 11.2567 1.75 7.87431 1.75ZM0.25 7.87431C0.25 3.66352 3.66352 0.25 7.87431 0.25C12.0851 0.25 15.4986 3.66352 15.4986 7.87431C15.4986 12.0851 12.0851 15.4986 7.87431 15.4986C3.66352 15.4986 0.25 12.0851 0.25 7.87431Z" fill="black" />
    <path fill-rule="evenodd" clip-rule="evenodd" d="M16.3666 17.4272L12.0702 13.1307L13.1308 12.0701L17.4273 16.3665L16.3666 17.4272Z" fill="black" />
</svg>